<?xml version="1.0" standalone="no"?>
<!DOCTYPE svg PUBLIC "-//W3C//DTD SVG 20010904//EN"
 "http://www.w3.org/TR/2001/REC-SVG-20010904/DTD/svg10.dtd">
<svg version="1.0" xmlns="http://www.w3.org/2000/svg"
 width="217.000000pt" height="217.000000pt" viewBox="0 0 217.000000 217.000000"
 preserveAspectRatio="xMidYMid meet">
<metadata>
Created by potrace 1.11, written by Peter Selinger 2001-2013
</metadata>
<g transform="translate(0.000000,217.000000) scale(0.100000,-0.100000)"
fill="#000000" stroke="none">
<path d="M928 1656 c-31 -11 -67 -29 -80 -39 -13 -10 -36 -26 -53 -36 -38 -23
-59 -83 -75 -212 -11 -88 -10 -101 10 -175 44 -158 101 -310 113 -298 6 6 47
-54 47 -70 0 -4 -7 -5 -16 -2 -18 7 -185 -114 -273 -198 -72 -69 -144 -165
-177 -236 -15 -33 -30 -57 -34 -55 -4 2 -13 -7 -20 -20 -8 -15 -22 -25 -35
-25 -11 0 -27 -6 -33 -12 -10 -10 -15 -10 -20 -1 -7 12 -62 6 -62 -7 0 -9 -67
-7 -76 3 -12 11 -44 8 -44 -4 0 -8 -5 -7 -15 1 -9 7 -14 19 -11 27 3 7 -1 13
-9 13 -8 0 -15 -8 -15 -17 0 -16 -2 -16 -10 -3 -9 13 -12 12 -25 -4 -12 -15
-15 -51 -15 -153 l0 -133 293 0 292 0 -33 26 c-17 14 -37 35 -43 47 -10 19 -8
19 17 -5 32 -29 98 -68 116 -68 6 0 -13 24 -41 52 -29 29 -58 62 -63 73 l-11
20 24 -20 c38 -32 115 -85 125 -85 14 0 -39 60 -59 66 -26 8 -77 45 -77 55 0
11 104 -48 125 -71 11 -12 19 -36 20 -53 l0 -32 84 -3 c95 -3 116 8 74 41 -21
17 -26 18 -34 6 -5 -8 -9 -20 -9 -26 0 -7 -4 -13 -10 -13 -5 0 -7 6 -5 13 3 6
6 38 8 69 3 51 2 57 -15 55 -10 -2 -25 -12 -34 -23 -14 -18 -15 -15 -9 31 3
28 12 93 20 145 8 52 14 109 14 125 -1 18 -5 9 -10 -25 -5 -30 -12 -62 -16
-70 -3 -8 -5 -27 -4 -43 2 -15 -2 -27 -8 -27 -6 0 -11 -9 -11 -19 0 -11 -4
-23 -10 -26 -6 -4 -10 18 -11 57 -1 69 -7 120 -16 128 -3 3 -3 -30 1 -73 4
-56 3 -76 -5 -71 -11 6 -7 -26 7 -78 3 -10 3 -18 0 -18 -11 0 -82 155 -101
217 -10 34 -22 60 -26 57 -10 -6 -3 -44 11 -58 5 -5 10 -24 10 -42 0 -17 10
-46 23 -65 13 -19 26 -43 30 -54 6 -17 4 -16 -13 4 -11 13 -23 21 -27 17 -4
-3 4 -18 18 -33 13 -15 17 -22 8 -15 -9 6 -20 8 -24 4 -5 -4 -5 -2 -2 4 7 12
-20 29 -38 25 -5 -2 -7 1 -2 5 4 4 -1 16 -10 27 -18 20 -18 20 10 2 35 -22 45
-13 23 20 -9 14 -19 39 -21 55 -2 16 -7 34 -10 40 -12 20 -7 74 11 115 10 22
19 46 20 53 6 31 256 262 284 262 5 0 8 -25 9 -56 0 -39 8 -72 27 -110 40 -83
47 -75 14 16 -17 45 -30 93 -29 108 0 15 3 21 6 14 2 -6 8 -10 13 -7 4 3 14
-15 21 -39 7 -25 17 -44 23 -43 5 1 22 -17 38 -41 22 -32 48 -52 101 -78 74
-36 112 -64 89 -64 -7 0 -10 -4 -7 -10 3 -5 -1 -20 -9 -32 -9 -12 -15 -32 -15
-43 1 -20 1 -20 6 0 8 34 57 105 69 101 15 -6 34 13 34 33 0 11 -4 10 -14 -5
-8 -10 -17 -16 -21 -12 -4 4 14 27 40 52 46 43 58 60 87 116 17 33 16 187 -2
219 l-12 24 -13 -37 c-16 -46 -60 -111 -94 -137 -20 -16 -34 -19 -80 -13 -63
7 -72 11 -45 20 10 3 30 11 43 17 19 9 20 13 8 15 -18 4 -24 22 -7 22 6 0 20
16 32 36 13 22 26 33 35 30 10 -4 13 0 11 16 -2 13 -14 25 -31 31 -33 11 -50
0 -24 -14 25 -15 21 -33 -5 -24 -13 4 -41 8 -62 9 -35 1 -40 4 -43 30 -4 31
18 56 52 55 l20 0 -20 -10 c-18 -8 -18 -8 5 -6 29 2 40 33 13 39 -10 2 -26 -1
-36 -6 -12 -8 -22 -8 -35 0 -16 11 -17 20 -8 79 2 11 -1 37 -6 58 -4 21 -9 43
-11 50 -3 16 -19 32 -39 40 -10 3 -18 13 -18 22 0 9 -9 15 -22 15 -21 0 -21 0
-2 21 10 12 36 30 58 39 31 14 35 19 20 23 -17 4 -17 6 4 12 12 4 22 11 22 15
0 5 20 19 45 31 25 12 45 27 45 32 0 12 82 -2 98 -17 7 -7 15 -36 19 -64 4
-33 11 -52 19 -52 8 0 21 -28 33 -67 43 -148 41 -144 36 -83 -3 36 -1 50 5 40
14 -23 1 167 -17 230 -18 66 -105 190 -133 190 -11 0 -23 6 -27 13 -26 40
-156 47 -245 13z m22 -462 c0 -2 -7 -4 -15 -4 -8 0 -15 4 -15 10 0 5 7 7 15 4
8 -4 15 -8 15 -10z m36 -68 c-9 -15 -20 -26 -25 -26 -5 0 -12 -13 -16 -30 -4
-16 -11 -30 -16 -30 -5 0 -9 -8 -9 -17 0 -14 -4 -13 -22 7 -21 22 -21 23 -2
36 35 24 55 48 50 60 -3 7 5 14 17 16 13 2 21 9 19 18 -3 12 -1 12 9 3 9 -9 8
-17 -5 -37z m-6 -105 c0 -15 -6 -35 -13 -45 -11 -16 -15 -16 -25 -3 -10 12 -9
22 5 50 20 39 33 39 33 -2z m150 -175 c0 -3 -4 -8 -10 -11 -5 -3 -10 -1 -10 4
0 6 5 11 10 11 6 0 10 -2 10 -4z m-519 -674 c45 -19 71 -42 49 -42 -19 0 -150
80 -150 91 0 6 12 2 28 -9 15 -11 48 -28 73 -40z"/>
<path d="M1123 1373 c9 -2 23 -2 30 0 6 3 -1 5 -18 5 -16 0 -22 -2 -12 -5z"/>
<path d="M1153 1319 c-18 -5 -33 -14 -33 -20 0 -6 -5 -7 -11 -3 -7 4 -10 1 -7
-7 3 -9 16 -13 34 -11 16 2 55 4 87 4 l58 1 -22 23 c-24 25 -52 29 -106 13z"/>
<path d="M1101 1246 c-13 -14 -19 -29 -15 -39 8 -21 66 -57 90 -56 18 0 18 1
-1 9 -19 9 -19 9 3 16 20 6 26 16 23 37 0 4 4 7 10 7 6 0 8 -7 5 -16 -5 -12
-1 -14 17 -8 12 3 24 8 26 10 6 5 -10 24 -31 35 -15 8 -19 8 -13 -1 5 -8 -2
-11 -21 -8 -20 2 -28 8 -26 18 2 8 0 12 -3 8 -4 -4 -15 -3 -25 2 -13 7 -23 3
-39 -14z m59 -56 c0 -5 -2 -10 -4 -10 -3 0 -8 5 -11 10 -3 6 -1 10 4 10 6 0
11 -4 11 -10z"/>
<path d="M1125 940 c3 -5 8 -10 11 -10 2 0 4 5 4 10 0 6 -5 10 -11 10 -5 0 -7
-4 -4 -10z"/>
<path d="M1400 864 c0 -13 18 -39 24 -34 2 3 -2 14 -10 24 -8 11 -14 16 -14
10z"/>
<path d="M1200 800 c0 -5 5 -10 11 -10 5 0 7 5 4 10 -3 6 -8 10 -11 10 -2 0
-4 -4 -4 -10z"/>
<path d="M1322 639 c-30 -52 -28 -54 13 -12 40 41 39 39 22 46 -7 3 -22 -11
-35 -34z"/>
<path d="M940 666 c0 -2 7 -7 16 -10 8 -3 12 -2 9 4 -6 10 -25 14 -25 6z"/>
<path d="M660 605 c-7 -9 -11 -17 -9 -20 3 -2 10 5 17 15 14 24 10 26 -8 5z"/>
<path d="M961 601 c-1 -17 82 -101 99 -101 12 0 -2 15 -56 61 -11 9 -24 25
-31 35 -8 13 -12 14 -12 5z"/>
<path d="M771 474 c0 -11 3 -14 6 -6 3 7 2 16 -1 19 -3 4 -6 -2 -5 -13z"/>
<path d="M1752 374 c11 -25 20 -60 20 -77 2 -57 -20 -225 -31 -245 -27 -51
-22 -53 137 -50 81 2 145 5 142 8 -3 3 5 18 18 34 12 16 22 36 22 45 -1 9 -7
2 -14 -15 -8 -17 -21 -34 -30 -37 -14 -6 -14 -4 1 20 17 26 17 26 -4 14 -30
-15 -35 -14 -24 7 15 29 23 125 12 153 l-9 24 -11 -27 c-8 -22 -17 -28 -38
-27 l-28 1 25 8 25 8 -27 1 c-25 1 -28 5 -28 36 0 32 -2 35 -19 25 -11 -5 -18
-18 -17 -27 2 -10 1 -12 -1 -5 -4 10 -8 10 -19 1 -12 -10 -13 -8 -5 13 15 41
23 108 12 108 -5 0 -13 -17 -18 -37 -6 -27 -14 -37 -25 -35 -9 1 -19 -5 -21
-15 -3 -10 -5 0 -6 22 -2 57 -11 85 -28 85 -8 0 -12 4 -9 9 3 5 0 11 -8 14
-11 4 -10 -5 6 -39z"/>
<path d="M1711 365 c0 -30 26 -62 39 -47 6 6 7 9 3 7 -4 -3 -15 9 -25 27 -13
25 -17 28 -17 13z"/>
<path d="M1144 294 c2 -44 6 -86 10 -92 4 -7 6 -24 4 -39 -2 -14 2 -28 8 -30
10 -3 3 83 -16 192 -8 46 -8 43 -6 -31z"/>
<path d="M1740 256 c0 -9 5 -16 10 -16 6 0 10 4 10 9 0 6 -4 13 -10 16 -5 3
-10 -1 -10 -9z"/>
<path d="M1169 114 c-3 -27 1 -96 6 -104 16 -25 21 -5 13 47 -8 54 -17 78 -19
57z"/>
<path d="M825 80 c-3 -5 -1 -10 4 -10 6 0 11 5 11 10 0 6 -2 10 -4 10 -3 0 -8
-4 -11 -10z"/>
</g>
</svg>
